<svg width="50" height="50" viewBox="0 0 50 50" fill="none" xmlns="http://www.w3.org/2000/svg">
<path d="M31.25 25C31.25 26.6576 30.5915 28.2473 29.4194 29.4194C28.2473 30.5915 26.6576 31.25 25 31.25C23.3424 31.25 21.7527 30.5915 20.5806 29.4194C19.4085 28.2473 18.75 26.6576 18.75 25C18.75 23.3424 19.4085 21.7527 20.5806 20.5806C21.7527 19.4085 23.3424 18.75 25 18.75C26.6576 18.75 28.2473 19.4085 29.4194 20.5806C30.5915 21.7527 31.25 23.3424 31.25 25ZM50 25C50 38.8 38.8 50 25 50C11.2 50 0 38.8 0 25C0 11.2 11.2 0 25 0C38.8 0 50 11.2 50 25ZM45 25H35C35 19.475 30.525 15 25 15C19.475 15 15 19.475 15 25H5C5 36.025 13.975 45 25 45C36.025 45 45 36.025 45 25Z" fill="#F2F2F2"/>
</svg>
